<mxfile host="app.diagrams.net" modified="2024-01-22T17:33:39.939Z" agent="Mozilla/5.0 (Macintosh; Intel Mac OS X 10_15_7) AppleWebKit/537.36 (KHTML, like Gecko) Chrome/120.0.0.0 Safari/537.36" etag="ZPpTaRAfrENhjQfxH8ZU" version="22.1.21" type="device">
  <diagram name="페이지-1" id="0NAuxaNLoAuZgDav1SPl">
    <mxGraphModel dx="2529" dy="2103" grid="1" gridSize="10" guides="1" tooltips="1" connect="1" arrows="1" fold="1" page="1" pageScale="1" pageWidth="827" pageHeight="1169" math="0" shadow="0">
      <root>
        <mxCell id="0" />
        <mxCell id="1" parent="0" />
        <mxCell id="_WgmGBYQjVT3pX2aO_Yh-2" value="" style="rounded=0;whiteSpace=wrap;html=1;fillColor=#FFFFFF;shadow=1;" vertex="1" parent="1">
          <mxGeometry x="-990" y="-800" width="640" height="385" as="geometry" />
        </mxCell>
        <mxCell id="_WgmGBYQjVT3pX2aO_Yh-1" value="" style="rounded=0;whiteSpace=wrap;html=1;fillColor=#FFFFFF;" vertex="1" parent="1">
          <mxGeometry x="-1350" y="-390" width="1000" height="160" as="geometry" />
        </mxCell>
        <mxCell id="_WgmGBYQjVT3pX2aO_Yh-3" value="&lt;h1&gt;상품(Product)&lt;/h1&gt;&lt;div&gt;상품은 상품명, 설명, 가격, 재고로 이루어진다.&lt;/div&gt;&lt;div&gt;&lt;br&gt;&lt;/div&gt;&lt;div&gt;재고를 수량만큼 감소시킨다.&lt;/div&gt;&lt;div&gt;- 현재 재고가 수량보다 적으면 재고 감소가 실패한다.&lt;/div&gt;" style="text;html=1;strokeColor=#000000;fillColor=#FFFFFF;spacing=5;spacingTop=-20;whiteSpace=wrap;overflow=hidden;rounded=0;shadow=1;" vertex="1" parent="1">
          <mxGeometry x="-1350" y="-800" width="320" height="165" as="geometry" />
        </mxCell>
        <mxCell id="_WgmGBYQjVT3pX2aO_Yh-4" value="&lt;h1&gt;주문(Order)&lt;/h1&gt;&lt;div&gt;&lt;span style=&quot;background-color: initial;&quot;&gt;등록된 상품을 주문한다.&lt;/span&gt;&lt;br&gt;&lt;/div&gt;&lt;div&gt;- 주문 시 주문 개수만큼 재고가 차감된다.&lt;/div&gt;&lt;div&gt;&lt;div style=&quot;border-color: var(--border-color);&quot;&gt;- 주문 시 상품의 재고가 부족하면 주문이 실패한다.&lt;/div&gt;&lt;/div&gt;&lt;div&gt;- 주문이 완료되면 주문 상태가 &#39;주문됨&#39;으로 변경된다.&lt;/div&gt;&lt;div&gt;&lt;br&gt;&lt;/div&gt;&lt;div&gt;&lt;br&gt;&lt;/div&gt;" style="text;html=1;strokeColor=#000000;fillColor=#FFFFFF;spacing=5;spacingTop=-20;whiteSpace=wrap;overflow=hidden;rounded=0;" vertex="1" parent="1">
          <mxGeometry x="-1350" y="-585" width="320" height="170" as="geometry" />
        </mxCell>
        <mxCell id="_WgmGBYQjVT3pX2aO_Yh-21" value="" style="shape=folder;fontStyle=1;spacingTop=10;tabWidth=40;tabHeight=14;tabPosition=left;html=1;whiteSpace=wrap;fillColor=#D9D9D9;" vertex="1" parent="1">
          <mxGeometry x="-970" y="-795" width="600" height="175" as="geometry" />
        </mxCell>
        <mxCell id="_WgmGBYQjVT3pX2aO_Yh-20" value="" style="shape=folder;fontStyle=1;spacingTop=10;tabWidth=40;tabHeight=14;tabPosition=left;html=1;whiteSpace=wrap;fillColor=#D9D9D9;" vertex="1" parent="1">
          <mxGeometry x="-970" y="-600" width="600" height="160" as="geometry" />
        </mxCell>
        <mxCell id="_WgmGBYQjVT3pX2aO_Yh-10" value=":Order" style="whiteSpace=wrap;html=1;" vertex="1" parent="1">
          <mxGeometry x="-1120" y="-330.71" width="120" height="40" as="geometry" />
        </mxCell>
        <mxCell id="_WgmGBYQjVT3pX2aO_Yh-11" value=":OrderLineItem" style="whiteSpace=wrap;html=1;" vertex="1" parent="1">
          <mxGeometry x="-880" y="-330.71" width="120" height="40" as="geometry" />
        </mxCell>
        <mxCell id="_WgmGBYQjVT3pX2aO_Yh-12" value="" style="endArrow=none;html=1;rounded=0;exitX=1;exitY=0.5;exitDx=0;exitDy=0;entryX=0;entryY=0.5;entryDx=0;entryDy=0;" edge="1" parent="1" target="_WgmGBYQjVT3pX2aO_Yh-10">
          <mxGeometry width="50" height="50" relative="1" as="geometry">
            <mxPoint x="-1200" y="-310.71" as="sourcePoint" />
            <mxPoint x="-1110" y="-320.71" as="targetPoint" />
          </mxGeometry>
        </mxCell>
        <mxCell id="_WgmGBYQjVT3pX2aO_Yh-13" value="" style="endArrow=none;html=1;rounded=0;exitX=0;exitY=0.5;exitDx=0;exitDy=0;edgeStyle=orthogonalEdgeStyle;entryX=1;entryY=0.5;entryDx=0;entryDy=0;" edge="1" parent="1" source="_WgmGBYQjVT3pX2aO_Yh-11" target="_WgmGBYQjVT3pX2aO_Yh-10">
          <mxGeometry width="50" height="50" relative="1" as="geometry">
            <mxPoint x="-1090" y="-240.71" as="sourcePoint" />
            <mxPoint x="-1040" y="-290.71" as="targetPoint" />
          </mxGeometry>
        </mxCell>
        <mxCell id="_WgmGBYQjVT3pX2aO_Yh-14" value="1: 주문하기" style="html=1;verticalAlign=bottom;endArrow=block;curved=0;rounded=0;" edge="1" parent="1">
          <mxGeometry width="80" relative="1" as="geometry">
            <mxPoint x="-1210" y="-320.71" as="sourcePoint" />
            <mxPoint x="-1130" y="-320.71" as="targetPoint" />
          </mxGeometry>
        </mxCell>
        <mxCell id="_WgmGBYQjVT3pX2aO_Yh-15" value="2: 항목 주문하기" style="html=1;verticalAlign=bottom;endArrow=block;curved=0;rounded=0;" edge="1" parent="1">
          <mxGeometry width="80" relative="1" as="geometry">
            <mxPoint x="-980" y="-320.71" as="sourcePoint" />
            <mxPoint x="-900" y="-320.71" as="targetPoint" />
          </mxGeometry>
        </mxCell>
        <mxCell id="_WgmGBYQjVT3pX2aO_Yh-16" value=":Product" style="whiteSpace=wrap;html=1;" vertex="1" parent="1">
          <mxGeometry x="-640" y="-330.71" width="120" height="40" as="geometry" />
        </mxCell>
        <mxCell id="_WgmGBYQjVT3pX2aO_Yh-17" value="" style="endArrow=none;html=1;rounded=0;entryX=1;entryY=0.5;entryDx=0;entryDy=0;exitX=0;exitY=0.5;exitDx=0;exitDy=0;edgeStyle=orthogonalEdgeStyle;" edge="1" parent="1" source="_WgmGBYQjVT3pX2aO_Yh-16" target="_WgmGBYQjVT3pX2aO_Yh-11">
          <mxGeometry width="50" height="50" relative="1" as="geometry">
            <mxPoint x="-860" y="-130.71" as="sourcePoint" />
            <mxPoint x="-810" y="-180.71" as="targetPoint" />
          </mxGeometry>
        </mxCell>
        <mxCell id="_WgmGBYQjVT3pX2aO_Yh-18" value="3: 재고 감소" style="html=1;verticalAlign=bottom;endArrow=block;curved=0;rounded=0;" edge="1" parent="1">
          <mxGeometry width="80" relative="1" as="geometry">
            <mxPoint x="-740" y="-320.71" as="sourcePoint" />
            <mxPoint x="-660" y="-320.71" as="targetPoint" />
          </mxGeometry>
        </mxCell>
        <mxCell id="_WgmGBYQjVT3pX2aO_Yh-5" value="&lt;p style=&quot;margin:0px;margin-top:4px;text-align:center;&quot;&gt;&lt;b&gt;Product&lt;/b&gt;&lt;/p&gt;&lt;hr size=&quot;1&quot;&gt;&lt;p style=&quot;margin:0px;margin-left:4px;&quot;&gt;+ name: String&lt;/p&gt;&lt;p style=&quot;margin:0px;margin-left:4px;&quot;&gt;+ descrioption: String&lt;/p&gt;&lt;p style=&quot;margin:0px;margin-left:4px;&quot;&gt;+ price: Money&lt;/p&gt;&lt;p style=&quot;margin:0px;margin-left:4px;&quot;&gt;+ stock: int&amp;nbsp;&lt;/p&gt;&lt;hr size=&quot;1&quot;&gt;&lt;p style=&quot;margin:0px;margin-left:4px;&quot;&gt;+ canReduceStock(int): boolean&lt;/p&gt;&lt;p style=&quot;margin:0px;margin-left:4px;&quot;&gt;+ reduceStock(int): void&lt;br&gt;&lt;/p&gt;" style="verticalAlign=top;align=left;overflow=fill;fontSize=12;fontFamily=Helvetica;html=1;whiteSpace=wrap;" vertex="1" parent="1">
          <mxGeometry x="-630" y="-772.5" width="250" height="142.5" as="geometry" />
        </mxCell>
        <mxCell id="_WgmGBYQjVT3pX2aO_Yh-6" value="&lt;p style=&quot;margin:0px;margin-top:4px;text-align:center;&quot;&gt;&lt;b&gt;Order&lt;/b&gt;&lt;/p&gt;&lt;hr size=&quot;1&quot;&gt;&lt;p style=&quot;margin:0px;margin-left:4px;&quot;&gt;+ orderLineItems: List&amp;lt;OrderLineItem&amp;gt;&lt;/p&gt;&lt;p style=&quot;margin:0px;margin-left:4px;&quot;&gt;+ orderStatus: OrderStatus&lt;/p&gt;&lt;hr size=&quot;1&quot;&gt;&lt;p style=&quot;margin:0px;margin-left:4px;&quot;&gt;+ place(): void&lt;br&gt;&lt;/p&gt;" style="verticalAlign=top;align=left;overflow=fill;fontSize=12;fontFamily=Helvetica;html=1;whiteSpace=wrap;" vertex="1" parent="1">
          <mxGeometry x="-960" y="-562.5" width="250" height="110" as="geometry" />
        </mxCell>
        <mxCell id="_WgmGBYQjVT3pX2aO_Yh-7" style="edgeStyle=orthogonalEdgeStyle;rounded=0;orthogonalLoop=1;jettySize=auto;html=1;exitX=0.5;exitY=0;exitDx=0;exitDy=0;entryX=0.5;entryY=1;entryDx=0;entryDy=0;" edge="1" parent="1" source="_WgmGBYQjVT3pX2aO_Yh-8" target="_WgmGBYQjVT3pX2aO_Yh-5">
          <mxGeometry relative="1" as="geometry" />
        </mxCell>
        <mxCell id="_WgmGBYQjVT3pX2aO_Yh-8" value="&lt;p style=&quot;margin:0px;margin-top:4px;text-align:center;&quot;&gt;&lt;b&gt;OrderLineItem&lt;/b&gt;&lt;/p&gt;&lt;hr size=&quot;1&quot;&gt;&lt;p style=&quot;margin:0px;margin-left:4px;&quot;&gt;+ product: Product&lt;/p&gt;&lt;p style=&quot;margin:0px;margin-left:4px;&quot;&gt;+ quantity: int&lt;/p&gt;&lt;hr size=&quot;1&quot;&gt;&lt;p style=&quot;margin:0px;margin-left:4px;&quot;&gt;+ placeOrder(): void&lt;/p&gt;" style="verticalAlign=top;align=left;overflow=fill;fontSize=12;fontFamily=Helvetica;html=1;whiteSpace=wrap;" vertex="1" parent="1">
          <mxGeometry x="-630" y="-557.5" width="250" height="100" as="geometry" />
        </mxCell>
        <mxCell id="_WgmGBYQjVT3pX2aO_Yh-9" style="edgeStyle=orthogonalEdgeStyle;rounded=0;orthogonalLoop=1;jettySize=auto;html=1;exitX=1;exitY=0.5;exitDx=0;exitDy=0;entryX=0;entryY=0.5;entryDx=0;entryDy=0;" edge="1" parent="1" source="_WgmGBYQjVT3pX2aO_Yh-6" target="_WgmGBYQjVT3pX2aO_Yh-8">
          <mxGeometry relative="1" as="geometry" />
        </mxCell>
      </root>
    </mxGraphModel>
  </diagram>
</mxfile>
